<svg width="23" height="22" viewBox="0 0 23 22" fill="none" xmlns="http://www.w3.org/2000/svg">
<path opacity="0.5" d="M12.038 3.836H10.5932C9.23104 3.836 8.54996 3.836 8.12679 4.25917C7.70361 4.68234 7.70361 5.36343 7.70361 6.7256V8.1704V9.254H14.9276V8.1704V6.7256C14.9276 5.36343 14.9276 4.68234 14.5044 4.25917C14.0813 3.836 13.4002 3.836 12.038 3.836Z" fill="white"/>
<path fill-rule="evenodd" clip-rule="evenodd" d="M12.3526 6.56892C11.7059 6.21628 10.9243 6.21628 10.2776 6.56892L6.81427 8.45741C6.11788 8.83713 5.68457 9.56694 5.68457 10.3601V13.9271C5.68457 14.7203 6.11788 15.4501 6.81426 15.8298L10.2776 17.7183C10.9243 18.0709 11.7059 18.0709 12.3526 17.7183L15.816 15.8298C16.5124 15.4501 16.9457 14.7203 16.9457 13.9271V10.3601C16.9457 9.56694 16.5124 8.83712 15.816 8.4574L12.3526 6.56892ZM11.3153 9.97641C11.1101 9.97641 10.9728 10.2226 10.6983 10.7151L10.6273 10.8425C10.5493 10.9824 10.5103 11.0524 10.4495 11.0985C10.3886 11.1447 10.3129 11.1618 10.1614 11.1961L10.0235 11.2273C9.49046 11.3479 9.22393 11.4082 9.16051 11.6122C9.0971 11.8161 9.27881 12.0285 9.64221 12.4535L9.73623 12.5634C9.8395 12.6842 9.89113 12.7446 9.91436 12.8193C9.93759 12.894 9.92979 12.9745 9.91417 13.1357L9.89996 13.2823C9.84502 13.8493 9.81755 14.1328 9.98356 14.2588C10.1496 14.3849 10.3991 14.27 10.8982 14.0402L11.0274 13.9807C11.1692 13.9154 11.2401 13.8828 11.3153 13.8828C11.3904 13.8828 11.4614 13.9154 11.6032 13.9807L11.7323 14.0402C12.2314 14.27 12.481 14.3849 12.647 14.2588C12.813 14.1328 12.7855 13.8493 12.7306 13.2823L12.7164 13.1357C12.7008 12.9745 12.693 12.894 12.7162 12.8193C12.7394 12.7446 12.791 12.6842 12.8943 12.5635L12.9883 12.4535C13.3517 12.0285 13.5334 11.8161 13.47 11.6122C13.4066 11.4082 13.1401 11.3479 12.607 11.2273L12.4691 11.1961C12.3176 11.1618 12.2419 11.1447 12.1811 11.0985C12.1203 11.0524 12.0813 10.9824 12.0033 10.8425L11.9322 10.7151C11.6577 10.2226 11.5205 9.97641 11.3153 9.97641Z" fill="white"/>
</svg>
