<svg width="23" height="22" viewBox="0 0 23 22" fill="none" xmlns="http://www.w3.org/2000/svg">
<path d="M9.48923 6.14648C10.4043 4.505 10.8618 3.68427 11.5458 3.68427C12.2298 3.68427 12.6873 4.505 13.6023 6.14648L13.8391 6.57114C14.0991 7.0376 14.2291 7.27083 14.4318 7.42471C14.6345 7.5786 14.887 7.63572 15.3919 7.74997L15.8516 7.85398C17.6285 8.25602 18.5169 8.45703 18.7283 9.13675C18.9397 9.81646 18.334 10.5247 17.1226 11.9412L16.8092 12.3077C16.465 12.7102 16.2929 12.9115 16.2155 13.1605C16.138 13.4095 16.1641 13.678 16.2161 14.2151L16.2635 14.704C16.4466 16.594 16.5382 17.539 15.9848 17.9591C15.4314 18.3791 14.5996 17.9961 12.9359 17.2301L12.5055 17.0319C12.0327 16.8143 11.7963 16.7054 11.5458 16.7054C11.2952 16.7054 11.0588 16.8143 10.5861 17.0319L10.1556 17.2301C8.49196 17.9961 7.66012 18.3791 7.10674 17.9591C6.55336 17.539 6.64493 16.594 6.82807 14.704L6.87545 14.2151C6.92749 13.678 6.95352 13.4095 6.87609 13.1605C6.79866 12.9115 6.62654 12.7102 6.28231 12.3077L5.96892 11.9412C4.75756 10.5247 4.15189 9.81646 4.36326 9.13675C4.57463 8.45703 5.46307 8.25602 7.23994 7.85398L7.69964 7.74997C8.20457 7.63572 8.45704 7.5786 8.65975 7.42471C8.86246 7.27083 8.99247 7.0376 9.2525 6.57115L9.48923 6.14648Z" fill="white"/>
</svg>
